<?xml version="1.0" encoding="UTF-8" standalone="no"?>
<!-- Generator: Adobe Illustrator 18.0.0, SVG Export Plug-In . SVG Version: 6.00 Build 0)  -->

<svg
   xmlns:dc="http://purl.org/dc/elements/1.1/"
   xmlns:cc="http://creativecommons.org/ns#"
   xmlns:rdf="http://www.w3.org/1999/02/22-rdf-syntax-ns#"
   xmlns:svg="http://www.w3.org/2000/svg"
   xmlns="http://www.w3.org/2000/svg"
   xmlns:sodipodi="http://sodipodi.sourceforge.net/DTD/sodipodi-0.dtd"
   xmlns:inkscape="http://www.inkscape.org/namespaces/inkscape"
   version="1.1"
   id="Layer_1"
   x="0px"
   y="0px"
   viewBox="0 0 75.967857 62"
   enable-background="new 0 0 64 64"
   xml:space="preserve"
   inkscape:version="0.48.4 r9939"
   width="100%"
   height="100%"
   sodipodi:docname="folder-open-outline.svg"><metadata
     id="metadata9"><rdf:RDF><cc:Work
         rdf:about=""><dc:format>image/svg+xml</dc:format><dc:type
           rdf:resource="http://purl.org/dc/dcmitype/StillImage" /></cc:Work></rdf:RDF></metadata><defs
     id="defs7" /><sodipodi:namedview
     pagecolor="#ffffff"
     bordercolor="#666666"
     borderopacity="1"
     objecttolerance="10"
     gridtolerance="10"
     guidetolerance="10"
     inkscape:pageopacity="0"
     inkscape:pageshadow="2"
     inkscape:window-width="640"
     inkscape:window-height="480"
     id="namedview5"
     showgrid="false"
     fit-margin-top="6"
     fit-margin-left="6"
     fit-margin-right="6"
     fit-margin-bottom="6"
     inkscape:zoom="3.6875"
     inkscape:cx="38"
     inkscape:cy="31"
     inkscape:window-x="65"
     inkscape:window-y="24"
     inkscape:window-maximized="0"
     inkscape:current-layer="Layer_1" /><path
     d="M 69.1,23.7 C 68.3,22.6 67.2,22 66,22 h -3 v -5.8 c 0,-2.2 -1.8,-4 -4,-4 L 37.4,12.2 34.2,7.5 34,7.2 C 33.1,6.4 32.1,6 31.1,6 H 9.9999998 c -2.2,0 -4,1.8 -4,4 V 56 H 55.5 c 1.6,0 3.1,-1 3.7,-2.5 l 10.5,-25.6 0,-0.1 C 70.2,26.5 70,25 69.1,23.7 z M 9.9999998,10 H 31 l 3.2,4.7 0.2,0.3 c 0.8,0.8 1.8,1.2 2.8,1.2 H 59 V 22 H 21 c -1.9,0 -3.3,1.6 -3.7,2.9 l -7.3000002,18.5 0,-33.4 z M 55.5,52 H 10.9 L 21,26.3 C 21,26.2 21.1,26 21.2,26 h 44.6 c 0.1,0.1 0.2,0.4 0.2,0.5 L 55.5,52 z"
     id="path3"
     inkscape:connector-curvature="0" /></svg>